<svg width="220" height="194" viewBox="0 0 220 194" fill="none" xmlns="http://www.w3.org/2000/svg">
<path d="M21.8286 7.07999V51H14.6286V7.07999H0.300629V0.599991H36.1566V7.07999H21.8286Z" fill="white"/>
<path d="M62.8411 30.912H51.9691V51H44.7691V0.599991H70.6171L78.9691 5.42399V26.088L70.6171 30.912L82.2091 51H74.2171L62.8411 30.912ZM51.9691 7.07999V24.432H71.7691V7.07999H51.9691Z" fill="white"/>
<path d="M113.837 0.599991L131.837 51H124.781L120.533 39.048H98.2128L93.9648 51H86.9088L104.909 0.599991H113.837ZM109.301 7.72799L100.517 32.568H118.229L109.445 7.72799H109.301Z" fill="white"/>
<path d="M177.561 46.176L169.209 51H139.761V0.599991H169.209L177.561 5.42399V46.176ZM146.961 7.07999V44.52H170.361V7.07999H146.961Z" fill="white"/>
<path d="M197.727 28.32V44.52H219.255V51H190.527V0.599991H219.255V7.07999H197.727V21.84H214.935V28.32H197.727Z" fill="white"/>
<path d="M45.6462 142.97V194H29.4462V80.6H95.7042V95.18H45.6462V128.39H85.9842V142.97H45.6462Z" fill="white"/>
<path d="M105.472 194L144.352 136.166L107.092 80.6H125.236L153.262 122.72L181.45 80.6H199.594L162.172 136.166L201.214 194H183.07L153.262 149.45L123.616 194H105.472Z" fill="white"/>
</svg>
